<svg xmlns="http://www.w3.org/2000/svg" viewBox="0 0 280.17 280.17">

    <g id="Layer_2" data-name="Layer 2">
        <g id="Layer_1-2" data-name="Layer 1">
            <path class="cls-1"
                d="M196.63,149.86H83.54a9.77,9.77,0,0,1,0-19.54H196.63a9.77,9.77,0,0,1,0,19.54Z" />
            <path class="cls-1"
                d="M196.63,95.22H83.54a9.77,9.77,0,0,1,0-19.54H196.63a9.77,9.77,0,1,1,0,19.54Z" />
            <path class="cls-1"
                d="M196.63,204.5H83.54a9.77,9.77,0,0,1,0-19.54H196.63a9.77,9.77,0,1,1,0,19.54Z" />
            <path class="cls-1"
                d="M179.18,280.17H101c-36.1,0-60.55-7.64-76.95-24S0,215.28,0,179.18V101C0,64.89,7.64,40.44,24,24S64.89,0,101,0h78.19c36.1,0,60.55,7.64,76.95,24s24,40.85,24,76.95v78.19c0,36.1-7.64,60.55-24,76.95S215.28,280.17,179.18,280.17ZM101,19.55c-30.57,0-50.64,5.82-63.13,18.31S19.55,70.42,19.55,101v78.19c0,30.58,5.82,50.64,18.31,63.13S70.42,260.62,101,260.62h78.19c30.58,0,50.64-5.81,63.13-18.31s18.31-32.55,18.31-63.13V101c0-30.57-5.81-50.64-18.31-63.13s-32.55-18.31-63.13-18.31Z" />
        </g>
    </g>
</svg>